<?xml version="1.0" encoding="utf-8"?>
<!-- Generator: Adobe Illustrator 16.0.0, SVG Export Plug-In . SVG Version: 6.00 Build 0)  -->
<!DOCTYPE svg PUBLIC "-//W3C//DTD SVG 1.1//EN" "http://www.w3.org/Graphics/SVG/1.1/DTD/svg11.dtd">
<svg version="1.1" id="Calque_1" xmlns="http://www.w3.org/2000/svg" xmlns:xlink="http://www.w3.org/1999/xlink" x="0px" y="0px"
	 width="247.703px" height="164.235px" viewBox="0 0 247.703 164.235" enable-background="new 0 0 247.703 164.235"
	 xml:space="preserve">
<rect y="-0.236" stroke="#FFFFFF" stroke-miterlimit="10" width="247.703" height="165.599"/>
<path fill="none" stroke="#000000" stroke-miterlimit="10" d="M177.24,30.844"/>
<g>
	<path fill="#FFFFFF" d="M100.973,131.635c12.7-32.073,29.563-80.647,45.802-86.79c-2.673,0.171-6.646,2.434-8.976,4.016
		c-3.59,2.433-15.604,19.477-20.756,27.185c-5.148,7.709-19.349,25.971-29.022,34.288c-9.677,8.317-41.198,5.277-52.433,2.636
		c-11.235-2.636-24.657,0-24.657,0c-7.801,0.814-16.854,40.575,1.716,56.675l4.059-0.073c-22.316-20.082-9.555-52.082-4.525-52.542
		c9.257-0.849,19.713,36.398,34.734,48.671c14.393-3.905,24.563-9.317,24.563-9.317s-10.17,5.412-24.563,9.317
		c2.958,2.42,6.091,3.871,9.428,3.871c16.204,0,21.743,2.372,36.547-20.619c-3.54-0.162-6.32-0.275-7.991-0.275
		c1.671,0,4.452,0.113,7.991,0.275c0.145-0.228,0.287-0.44,0.436-0.674C96.065,143.98,98.348,138.26,100.973,131.635z"/>
</g>
<path fill="#FFFFFF" d="M162.669,140.77c49.223-0.177,51.719,8.119,50.317,13.385c-1.403,5.26-5.672,9.278,1.871,9.991
	c7.539,0.709,1.059-0.356,15.718,1.072c14.661,1.423-23.361,1.516-28.238,1.423c-4.872-0.087-14.182-0.8-12.033-3.031
	c2.147-2.229,8.993-18.601-29.736-16.993L162.669,140.77z"/>
<path fill="#FFFFFF" d="M98.897,156.282c0,0,37.232-1.758,54.774-1.126c17.541,0.629,8.365-76.562,8.108-78.241
	c-0.258-1.674-1.498-51.6-24.164-28.023c0,0,0.374,2.215-0.661,3.737c-1.036,1.523,17.139-23.326,22.249,24.499
	c5.109,47.823,2.294,68.17-4.588,70.477c-6.882,2.305-54.966,1.836-54.966,1.836L98.897,156.282z"/>
<path stroke="#000000" stroke-miterlimit="10" d="M26.616,124.951c0,0,36.23,92.34,72.281-2.143
	C98.897,122.809,66.412,186.364,26.616,124.951z"/>
</svg>
