<?xml version="1.0" encoding="utf-8"?>
<!-- Generator: Adobe Illustrator 16.0.0, SVG Export Plug-In . SVG Version: 6.00 Build 0)  -->
<!DOCTYPE svg PUBLIC "-//W3C//DTD SVG 1.1//EN" "http://www.w3.org/Graphics/SVG/1.1/DTD/svg11.dtd">
<svg version="1.1" id="Calque_1" xmlns="http://www.w3.org/2000/svg" xmlns:xlink="http://www.w3.org/1999/xlink" x="0px" y="0px"
	 width="247.703px" height="164.235px" viewBox="0 0 247.703 164.235" enable-background="new 0 0 247.703 164.235"
	 xml:space="preserve">
<path d="M-1.262-5.106V184.5h249.933V-5.106H-1.262z M211.746,170.233l-1.116-8.517c0,0,10.945-10.581,12.782-55.166
	c-2.549,7.566-6.829,17.296-13.992,29.326c0,0-16.1,33.196-19.395,33.532H179.38c0,0-1.461-2.795-3.717-7.038l0.104,7.445
	l-29.639-1.321c0,0-0.815-8.646-0.147-10.388c0.396-1.03-1.143-7.204-2.468-12.08c-1.55,11.557-3.037,20.249-4.093,21.548
	c-3.19,3.925-33.523,1.194-37.504,0.818c-0.058,0.145-0.116,0.258-0.173,0.321c-2.262,2.473-27.762,0.599-27.762,0.599
	L59.59,132.648c-12.08,17.507-19.385,34.325-19.385,34.325l-26.376,0.286l11.573-42.381c4.707-8.459,9.529-15.515,14.28-21.438
	c-46.94,32.999-31.378,64.43-31.378,64.43h-4.88C-8.111,71.592,34.166,80.943,34.166,80.943l6.362,21.432
	c1.663-2.03,3.318-3.92,4.952-5.679l-0.888-2.262l9.693-11.988c0,0,2.459,0.19,6.404,0.846c12.514-8.79,21.542-9.938,21.542-9.938
	l14.997,23.26c3.15,2.051,6.165,4.381,8.898,7.052c0,0-0.761,22.409-1.857,40.937c3.202-23.905,9.155-59.721,17.848-77.585
	l13.348-23.036c0,0,4.516,7.786,8.632,15.815l14.041-18.926l7.127,7.519c0,0,1.551,6.214,3.746,8.607
	c1.933,2.106,4.895,30.655,5.583,38.089c5.965-8.08,11.423-14.889,13.404-15.659c0,0,30.28-2.671,38.933,6.682
	c0,0,0.879,4.971-1.964,15.388C232.976,104.345,271.485,121.435,211.746,170.233z"/>
<path d="M57.629,87.009c0,0,40.976,16.292,43.444,19.997s-2.468,49.617-2.468,49.617S107.984,129.458,57.629,87.009z"/>
<path d="M191.911,82.565c0,0,28.233-1.382,32.088,4.169c0,0-2.467,25.461-29.62,65.445C194.379,152.18,225.48,93.916,191.911,82.565
	z"/>
<path d="M228.442,105.525c0,0,27.646,14.566,2.962,42.212C231.404,147.737,244.826,131.197,228.442,105.525z"/>
<path d="M159.823,48.014c0,0,2.375,5.447,5.924,9.873c0,0,6.416,36.532,3.454,50.355c0,0-4.443-45.419-14.811-53.812L159.823,48.014
	z"/>
<path d="M29.984,82.413c0,0-21.202,5.142-24.684,34.96c0,0,15.112-27.198,27.646-25.419L29.984,82.413z"/>
</svg>
