<?xml version="1.0" encoding="utf-8"?>
<!-- Generator: Adobe Illustrator 16.0.0, SVG Export Plug-In . SVG Version: 6.00 Build 0)  -->
<!DOCTYPE svg PUBLIC "-//W3C//DTD SVG 1.1//EN" "http://www.w3.org/Graphics/SVG/1.1/DTD/svg11.dtd">
<svg version="1.1" id="Calque_1" xmlns="http://www.w3.org/2000/svg" xmlns:xlink="http://www.w3.org/1999/xlink" x="0px" y="0px"
	 width="247.703px" height="164.235px" viewBox="0 0 247.703 164.235" enable-background="new 0 0 247.703 164.235"
	 xml:space="preserve">
<rect x="1.101" y="0.5" stroke="#FFFFFF" stroke-miterlimit="10" width="251.602" height="165.011"/>
<path fill="none" stroke="#000000" stroke-miterlimit="10" d="M61.195,43.835"/>
<polygon fill="#FFFFFF" points="54.375,13.818 217.021,105.873 237.053,105.873 237.053,118.751 113.041,118.751 85.377,167.878 
	71.066,167.878 0,118.751 "/>
<polygon points="97.301,118.751 77.267,155.479 19.845,118.751 "/>
<polygon points="59.143,27.65 20.032,106.349 102.547,106.349 125.918,67.001 "/>
<polygon points="137.845,73.439 188.879,103.489 188.879,106.349 118.527,106.349 "/>
<polygon fill="#FFFFFF" points="81.78,35.868 65.265,68.469 67.43,69.742 84.423,37.188 "/>
<polygon fill="#FFFFFF" points="81.78,76.055 84.423,77.255 99.684,49.472 97.657,48.517 "/>
</svg>
