<?xml version="1.0" encoding="utf-8"?>
<!-- Generator: Adobe Illustrator 16.0.0, SVG Export Plug-In . SVG Version: 6.00 Build 0)  -->
<!DOCTYPE svg PUBLIC "-//W3C//DTD SVG 1.1//EN" "http://www.w3.org/Graphics/SVG/1.1/DTD/svg11.dtd">
<svg version="1.1" id="Calque_1" xmlns="http://www.w3.org/2000/svg" xmlns:xlink="http://www.w3.org/1999/xlink" x="0px" y="0px"
	 width="961.642px" height="223.533px" viewBox="0 0 961.642 223.533" enable-background="new 0 0 961.642 223.533"
	 xml:space="preserve">
<g>
	<polygon fill="none" points="94.618,113.854 113.262,81.5 113.26,81.5 94.618,113.872 	"/>
	<polygon fill="none" points="75.013,104.436 92.578,69.014 92.56,69.003 75.004,104.43 	"/>
	<polygon fill="none" points="139.479,151.5 224.618,151.5 224.618,147.772 162.852,110.678 	"/>
	<polygon points="0.618,223.5 76.26,223.5 0.618,170.099 	"/>
	<polygon points="309.618,0.5 0.618,0.5 0.618,157.066 61.698,36.684 61.793,36.739 61.821,36.684 258.706,150.5 283.618,150.5 
		283.618,167.5 132.837,167.5 101.775,223.5 309.618,223.5 	"/>
	<path fill="#FFFFFF" d="M283.618,167.5v-17h-24.912L61.821,36.684l-0.028,0.055L0.863,157.01L-4,166.634l4.863,3.45l75.397,53.313
		l5.767,4.103h17.324l2.245-3.676l0.18-0.324l31.063-56H283.618z M224.618,151.5h-85.139l23.374-40.822l61.766,37.094V151.5z
		 M67.594,54.009l24.984,14.958l-0.018,0.037l0.018,0.011l-17.565,35.421l2.613,1.572l17.98-35.216l17.656,10.672L113.26,81.5h0.001
		l-18.264,32.354l3.198,1.469l17.434-32.459l32.796,19.849l-28.29,48.788H20.25L67.594,54.009z M89.533,212.954L20.022,167.5h93.761
		L89.533,212.954z"/>
	<polygon points="20.022,167.5 89.533,212.954 113.784,167.5 	"/>
	<polygon points="148.425,102.708 115.629,82.855 98.195,115.305 94.998,113.82 94.997,113.82 113.26,81.431 113.262,81.429 
		95.605,70.792 77.625,106.008 75.013,104.436 75.004,104.43 92.56,69.003 92.578,68.967 67.594,54.009 20.25,151.5 120.135,151.5 	
		"/>
</g>
<polygon points="224.618,151.5 224.618,147.772 162.852,110.678 139.479,151.5 "/>
<g>
	<rect x="325.982" y="0.5" width="308.462" height="222.57"/>
	<path fill="none" stroke="#000000" stroke-miterlimit="10" d="M527.802,37.657"/>
	<g>
		<path fill="#FFFFFF" d="M455.707,175.268c16.806-44.432,39.118-111.722,60.606-120.231c-3.536,0.236-8.792,3.372-11.876,5.562
			c-4.751,3.371-20.648,26.983-27.464,37.66c-6.813,10.681-25.603,35.979-38.405,47.502c-12.802,11.521-54.512,7.308-69.379,3.651
			c-14.866-3.651-32.625,0-32.625,0c-10.322,1.124-22.3,56.207,2.271,78.511l5.37-0.1c-29.527-27.824-12.643-72.153-5.988-72.791
			c12.25-1.173,26.085,50.422,45.961,67.425c19.044-5.407,32.502-12.906,32.502-12.906s-13.458,7.499-32.502,12.906
			c3.914,3.355,8.058,5.366,12.475,5.366c21.439,0,28.77,3.282,48.357-28.566c-4.682-0.225-8.361-0.38-10.575-0.38
			c2.214,0,5.893,0.155,10.575,0.38c0.194-0.314,0.38-0.61,0.578-0.932C449.213,192.372,452.235,184.444,455.707,175.268z"/>
	</g>
	<path fill="#FFFFFF" d="M537.344,187.922c65.131-0.245,68.431,11.247,66.579,18.542c-1.857,7.289-7.506,12.851,2.476,13.842
		c9.973,0.985,1.399-0.498,20.797,1.483c19.398,1.973-30.912,2.101-37.361,1.973c-6.45-0.121-18.767-1.11-15.925-4.2
		c2.842-3.089,11.898-25.767-39.347-23.542L537.344,187.922z"/>
	<path fill="#FFFFFF" d="M452.96,209.414c0,0,49.267-2.436,72.479-1.561c23.209,0.872,11.068-106.063,10.729-108.391
		c-0.343-2.317-1.98-71.48-31.974-38.818c0,0,0.494,3.068-0.875,5.176c-1.372,2.11,22.677-32.314,29.44,33.938
		c6.759,66.249,3.033,94.437-6.072,97.633c-9.104,3.194-72.729,2.545-72.729,2.545L452.96,209.414z"/>
	<path stroke="#000000" stroke-miterlimit="10" d="M357.318,166.008c0,0,47.939,127.917,95.642-2.967
		C452.96,163.042,409.976,251.084,357.318,166.008z"/>
</g>
<g>
	<rect x="652.993" y="0.5" width="308.463" height="222.387"/>
	<path d="M684.503,194.133"/>
	<g>
		<path fill="#FFFFFF" d="M652.168,223.5h6.402c0,0-23.803-38.958,40.922-94.396l-8.198-31.422
			C691.294,97.683,636.8,87.5,652.168,223.5z"/>
		<g>
			<path fill="#FFFFFF" d="M665.3,223.59l15.239-62.246c0,0,22.112-37.877,25.391-39.975l-1.174-3.243l12.48-17.389l8.247,1.239
				c0,0,18.383-12.318,27.759-14.429l19.167,33.499l11.628,10.527l-2.394,59.451c0,0,12.243-96.097,23.502-113.645l16.7-32.483
				l11.125,22.968l18.095-27.482l9.186,10.917c0,0,1.589,8.894,6.081,13.225l5.942,54.588c0,0,15.118-22.568,17.274-22.739
				c2.157-0.173,39.362-2.854,50.179,9.703c0,0,0.126,17.706-2.535,22.348c0,0,68.151,20.406-17.035,99.826l-1.63-12.214
				c0,0,13.928-14.216,16.568-77.813c0,0-35.36,83.609-42.933,88.828l-13.974,0.286l-4.696-10.696l-0.213,11.861h-37.99
				c0,0-0.664-16.045,0.096-19.561l-3.511-15.044l-3.85,27.431c0,0,2.661,11.39-47.327,4.52l-2.283-1.123
				c0,0,0.421,6.347-35.809,2.201l-18.513-52.734l-25.015,49.324L665.3,223.59z"/>
			<path d="M721.533,107.383c0,0,52.812,23.662,55.992,29.043c3.18,5.383-3.181,72.057-3.181,72.057S786.43,169.03,721.533,107.383z
				"/>
			<path d="M894.595,100.931c0,0,36.389-2.006,41.354,6.056c0,0-3.18,36.972-38.175,95.045
				C897.775,202.032,937.858,117.416,894.595,100.931z"/>
			<path d="M853.241,50.754c0,0,3.06,7.91,7.635,14.34c0,0,8.268,53.053,4.452,73.127c0,0-5.728-65.961-19.089-78.148
				L853.241,50.754z"/>
			<path d="M941.675,134.274c0,0,35.629,21.156,3.819,61.303C945.495,195.577,962.792,171.556,941.675,134.274z"/>
		</g>
		<path d="M685.906,100.711c0,0-27.326,7.467-31.813,50.769c0,0,19.478-39.496,35.631-36.913L685.906,100.711z"/>
	</g>
</g>
</svg>
